<?xml version="1.0" encoding="UTF-8"?> <!-- Generator: Adobe Illustrator 16.0.0, SVG Export Plug-In . SVG Version: 6.00 Build 0) --> <svg xmlns="http://www.w3.org/2000/svg" xmlns:xlink="http://www.w3.org/1999/xlink" version="1.1" id="Layer_1" x="0px" y="0px" width="438.104px" height="151.473px" viewBox="0 0 438.104 151.473" xml:space="preserve"> <g> <g> <path fill="#89D99C" d="M196.652,59.872h20.091v10.045h-32.667V15.709h12.576V59.872z"></path> <path fill="#89D99C" d="M273.146,69.917h-9.747c-1.092,0-1.991-0.254-2.698-0.762s-1.197-1.159-1.47-1.953l-3.2-9.451H235.42 l-3.2,9.451c-0.249,0.694-0.732,1.321-1.451,1.879c-0.72,0.558-1.6,0.836-2.642,0.836h-9.822l20.984-54.208h12.873L273.146,69.917 z M238.322,49.195h14.808l-4.985-14.846c-0.323-0.942-0.701-2.052-1.135-3.33c-0.434-1.277-0.862-2.66-1.283-4.148 c-0.397,1.513-0.807,2.915-1.228,4.204c-0.422,1.29-0.818,2.406-1.191,3.348L238.322,49.195z"></path> <path fill="#89D99C" d="M290.113,49.864v20.053h-12.575V15.709h17.635c3.919,0,7.261,0.403,10.027,1.209s5.022,1.929,6.771,3.367 c1.749,1.439,3.02,3.138,3.814,5.097c0.793,1.96,1.19,4.093,1.19,6.399c0,1.762-0.235,3.423-0.707,4.986 c-0.471,1.563-1.172,3.008-2.102,4.334c-0.93,1.327-2.071,2.511-3.422,3.553c-1.353,1.042-2.909,1.897-4.669,2.567 c0.843,0.422,1.63,0.943,2.362,1.563c0.732,0.62,1.37,1.376,1.916,2.27l11.534,18.862h-11.384c-2.109,0-3.623-0.793-4.54-2.38 l-9.003-15.738c-0.397-0.694-0.862-1.19-1.395-1.488c-0.534-0.297-1.284-0.447-2.252-0.447H290.113z M290.113,41.195h5.06 c1.711,0,3.168-0.216,4.372-0.651c1.203-0.434,2.189-1.035,2.958-1.805c0.769-0.769,1.326-1.667,1.674-2.697 c0.347-1.029,0.521-2.139,0.521-3.33c0-2.381-0.776-4.241-2.326-5.581c-1.55-1.339-3.95-2.009-7.199-2.009h-5.06V41.195z"></path> <path fill="#89D99C" d="M361.585,55.891c0.298,0,0.595,0.056,0.893,0.167c0.297,0.112,0.583,0.305,0.855,0.578l4.985,5.246 c-2.183,2.852-4.917,5.003-8.204,6.455c-3.287,1.451-7.175,2.177-11.665,2.177c-4.117,0-7.807-0.701-11.068-2.103 c-3.262-1.401-6.027-3.336-8.296-5.805c-2.27-2.467-4.012-5.395-5.228-8.78c-1.216-3.386-1.823-7.063-1.823-11.032 c0-4.043,0.694-7.757,2.083-11.144c1.389-3.385,3.33-6.306,5.823-8.762c2.493-2.456,5.475-4.365,8.948-5.729 c3.472-1.364,7.304-2.046,11.497-2.046c2.033,0,3.949,0.18,5.748,0.54c1.798,0.36,3.479,0.856,5.042,1.488 c1.563,0.632,3.001,1.389,4.315,2.27c1.314,0.881,2.48,1.854,3.497,2.921l-4.241,5.692c-0.273,0.348-0.596,0.664-0.968,0.949 c-0.372,0.285-0.893,0.428-1.563,0.428c-0.446,0-0.869-0.099-1.265-0.297c-0.397-0.199-0.819-0.44-1.266-0.726 c-0.446-0.285-0.937-0.595-1.469-0.93c-0.534-0.335-1.167-0.645-1.898-0.93s-1.587-0.527-2.567-0.726 c-0.98-0.198-2.127-0.298-3.441-0.298c-2.282,0-4.366,0.404-6.25,1.209c-1.886,0.807-3.504,1.96-4.855,3.46 c-1.353,1.501-2.406,3.317-3.163,5.451c-0.757,2.133-1.134,4.527-1.134,7.181c0,2.778,0.377,5.246,1.134,7.404 c0.756,2.158,1.786,3.975,3.088,5.451c1.302,1.476,2.821,2.598,4.558,3.367c1.735,0.77,3.596,1.153,5.581,1.153 c1.141,0,2.182-0.056,3.125-0.167c0.943-0.112,1.817-0.304,2.624-0.577c0.806-0.272,1.575-0.626,2.307-1.061 c0.731-0.434,1.47-0.973,2.214-1.618c0.298-0.248,0.62-0.452,0.967-0.614C360.853,55.972,361.213,55.891,361.585,55.891z"></path> <path fill="#89D99C" d="M399.571,60.84c1.736,0,3.274-0.149,4.613-0.446c1.339-0.298,2.605-0.694,3.795-1.191V50.98h-5.358 c-0.794,0-1.414-0.21-1.86-0.632c-0.447-0.421-0.67-0.955-0.67-1.6v-6.921h19.272v22.882c-1.39,1.018-2.834,1.892-4.334,2.622 c-1.501,0.732-3.102,1.335-4.8,1.806s-3.51,0.818-5.432,1.041c-1.923,0.225-3.988,0.336-6.195,0.336 c-3.969,0-7.64-0.701-11.013-2.103s-6.294-3.336-8.761-5.805c-2.469-2.467-4.403-5.395-5.805-8.78 c-1.401-3.386-2.102-7.063-2.102-11.032c0-4.043,0.67-7.757,2.009-11.144c1.339-3.385,3.256-6.306,5.748-8.762 c2.493-2.456,5.506-4.365,9.041-5.729c3.534-1.364,7.484-2.046,11.85-2.046c2.256,0,4.377,0.186,6.362,0.558 s3.814,0.881,5.488,1.525c1.675,0.646,3.205,1.414,4.595,2.307c1.389,0.893,2.629,1.861,3.721,2.902l-3.646,5.543 c-0.348,0.521-0.763,0.93-1.246,1.228c-0.484,0.297-1.012,0.446-1.582,0.446c-0.744,0-1.513-0.248-2.307-0.744 c-0.993-0.595-1.929-1.11-2.809-1.544c-0.88-0.434-1.78-0.787-2.697-1.061c-0.918-0.272-1.885-0.471-2.902-0.595 c-1.017-0.125-2.158-0.187-3.423-0.187c-2.356,0-4.477,0.416-6.362,1.247c-1.885,0.832-3.491,2.003-4.818,3.516 c-1.327,1.513-2.35,3.33-3.069,5.451c-0.72,2.121-1.079,4.483-1.079,7.088c0,2.878,0.396,5.432,1.19,7.665 c0.793,2.232,1.891,4.117,3.293,5.655c1.401,1.539,3.063,2.71,4.985,3.516C395.187,60.437,397.289,60.84,399.571,60.84z"></path> </g> </g> <g> <g> <path fill="#89D99C" d="M184.077,106.299v-1.625l2.104-0.361v-14.8l-2.104-0.361v-1.639h2.104h2.542h2.103v1.639l-2.103,0.361 v14.8h6.529l0.193-2.155h2.167v4.142H184.077z"></path> <path fill="#89D99C" d="M208.888,106.299c-0.077-0.379-0.137-0.718-0.181-1.019c-0.043-0.302-0.073-0.603-0.09-0.903 c-0.49,0.628-1.103,1.15-1.838,1.566c-0.736,0.418-1.521,0.626-2.355,0.626c-1.454,0-2.559-0.354-3.316-1.064 c-0.757-0.709-1.135-1.709-1.135-2.999c0-1.325,0.536-2.347,1.606-3.064c1.071-0.719,2.539-1.077,4.406-1.077h2.62v-1.626 c0-0.817-0.259-1.464-0.774-1.942c-0.516-0.477-1.235-0.716-2.155-0.716c-0.637,0-1.198,0.082-1.684,0.245 c-0.486,0.164-0.88,0.387-1.181,0.671l-0.271,1.472h-1.961v-2.71c0.637-0.507,1.406-0.914,2.31-1.219 c0.903-0.306,1.883-0.458,2.941-0.458c1.583,0,2.864,0.404,3.845,1.212c0.98,0.81,1.471,1.966,1.471,3.471v6.723 c0,0.181,0.002,0.357,0.006,0.528c0.004,0.173,0.015,0.345,0.032,0.517l1.032,0.143v1.625H208.888z M204.798,104.44 c0.842,0,1.612-0.201,2.309-0.605c0.697-0.404,1.196-0.891,1.498-1.458v-2.297h-2.71c-1.041,0-1.864,0.241-2.471,0.723 c-0.607,0.481-0.91,1.066-0.91,1.755c0,0.61,0.189,1.076,0.567,1.4C203.46,104.279,204.032,104.44,204.798,104.44z"></path> <path fill="#89D99C" d="M218.771,88.971v3.368h2.645v1.884h-2.645v8.477c0,0.653,0.135,1.114,0.406,1.38 c0.271,0.268,0.63,0.4,1.077,0.4c0.224,0,0.475-0.02,0.755-0.058c0.279-0.039,0.514-0.079,0.703-0.122l0.348,1.741 c-0.241,0.155-0.593,0.281-1.058,0.381c-0.464,0.098-0.929,0.147-1.393,0.147c-1.032,0-1.854-0.312-2.465-0.935 c-0.611-0.624-0.916-1.603-0.916-2.936v-8.477h-2.206v-1.884h2.206v-3.368H218.771z"></path> <path fill="#89D99C" d="M224.009,104.674l2.103-0.361v-9.974l-2.103-0.361v-1.639h4.645v11.974l2.103,0.361v1.625h-6.748V104.674z M228.654,88.765h-2.542v-2.593h2.542V88.765z"></path> <path fill="#89D99C" d="M232.318,104.674l2.104-0.361v-9.974l-2.104-0.361v-1.639h4.375l0.181,2.077 c0.464-0.739,1.047-1.314,1.748-1.723s1.499-0.612,2.394-0.612c1.505,0,2.671,0.44,3.496,1.322 c0.826,0.882,1.239,2.242,1.239,4.084v6.825l2.103,0.361v1.625h-6.748v-1.625l2.103-0.361v-6.774c0-1.229-0.243-2.104-0.729-2.619 c-0.486-0.516-1.228-0.773-2.226-0.773c-0.731,0-1.378,0.176-1.941,0.529c-0.564,0.352-1.013,0.834-1.349,1.443v8.194l2.104,0.361 v1.625h-6.749V104.674z"></path> <path fill="#89D99C" d="M255.827,104.674l1.393-0.194l6.568-16.967h2.181l6.451,16.967l1.38,0.194v1.625h-5.393v-1.625 l1.419-0.245l-1.239-3.458h-7.521l-1.278,3.458l1.419,0.245v1.625h-5.38V104.674z M261.852,98.841h5.961l-2.916-8.063h-0.077 L261.852,98.841z"></path> <path fill="#89D99C" d="M275.116,104.674l2.104-0.361v-9.974l-2.104-0.361v-1.639h4.387l0.167,1.819 c0.447-0.662,1.024-1.174,1.729-1.535c0.706-0.362,1.523-0.542,2.452-0.542s1.727,0.214,2.394,0.645 c0.667,0.43,1.167,1.075,1.503,1.936c0.438-0.791,1.02-1.419,1.741-1.884c0.723-0.465,1.566-0.696,2.529-0.696 c1.428,0,2.555,0.488,3.381,1.464c0.825,0.977,1.238,2.445,1.238,4.406v6.361l2.103,0.361v1.625h-6.761v-1.625l2.104-0.361v-6.387 c0-1.376-0.237-2.351-0.71-2.923c-0.473-0.572-1.174-0.857-2.103-0.857c-0.886,0-1.598,0.312-2.136,0.935 c-0.538,0.624-0.849,1.409-0.935,2.354v6.878l2.103,0.361v1.625h-6.748v-1.625l2.103-0.361v-6.387 c0-1.308-0.243-2.265-0.729-2.872c-0.486-0.605-1.189-0.908-2.11-0.908c-0.774,0-1.411,0.158-1.91,0.477 c-0.499,0.318-0.881,0.766-1.148,1.342v8.349l2.104,0.361v1.625h-6.749V104.674z"></path> <path fill="#89D99C" d="M306.83,106.569c-1.944,0-3.49-0.646-4.638-1.941c-1.148-1.294-1.722-2.974-1.722-5.038v-0.567 c0-1.987,0.591-3.641,1.774-4.962c1.182-1.32,2.582-1.979,4.2-1.979c1.875,0,3.296,0.567,4.264,1.703 c0.968,1.135,1.452,2.648,1.452,4.541v1.587h-9.057l-0.039,0.065c0.026,1.341,0.366,2.444,1.02,3.309 c0.653,0.864,1.57,1.297,2.748,1.297c0.86,0,1.615-0.123,2.265-0.367c0.649-0.246,1.21-0.583,1.684-1.014l0.993,1.651 c-0.499,0.482-1.158,0.889-1.98,1.22S307.982,106.569,306.83,106.569z M306.443,94.08c-0.852,0-1.578,0.36-2.181,1.077 c-0.603,0.719-0.972,1.62-1.109,2.704l0.025,0.064h6.438V97.59c0-0.997-0.267-1.832-0.8-2.503 C308.283,94.416,307.493,94.08,306.443,94.08z"></path> <path fill="#89D99C" d="M314.662,93.978v-1.639h4.374l0.245,2.025c0.396-0.714,0.884-1.272,1.465-1.678 c0.58-0.403,1.244-0.605,1.993-0.605c0.198,0,0.402,0.015,0.613,0.045c0.21,0.03,0.372,0.063,0.484,0.096l-0.336,2.362 l-1.445-0.078c-0.671,0-1.235,0.157-1.69,0.471c-0.456,0.314-0.808,0.756-1.058,1.322v8.014l2.103,0.361v1.625h-6.748v-1.625 l2.103-0.361v-9.974L314.662,93.978z"></path> <path fill="#89D99C" d="M325.59,104.674l2.103-0.361v-9.974l-2.103-0.361v-1.639h4.645v11.974l2.103,0.361v1.625h-6.748V104.674z M330.235,88.765h-2.542v-2.593h2.542V88.765z"></path> <path fill="#89D99C" d="M340.544,104.583c0.843,0,1.585-0.26,2.226-0.78c0.641-0.521,0.961-1.16,0.961-1.917h2.284l0.025,0.078 c0.043,1.204-0.492,2.272-1.606,3.206c-1.114,0.934-2.411,1.399-3.89,1.399c-2.03,0-3.581-0.661-4.651-1.986 c-1.07-1.324-1.606-2.988-1.606-4.993v-0.542c0-1.986,0.538-3.645,1.612-4.974c1.076-1.329,2.624-1.993,4.645-1.993 c1.118,0,2.123,0.185,3.013,0.555c0.89,0.369,1.627,0.877,2.213,1.522l0.117,3.097h-2.026l-0.555-2.194 c-0.301-0.292-0.688-0.529-1.161-0.71c-0.474-0.181-1.006-0.271-1.6-0.271c-1.333,0-2.286,0.48-2.858,1.438 c-0.572,0.96-0.858,2.136-0.858,3.529v0.542c0,1.429,0.284,2.617,0.852,3.567C338.248,104.108,339.203,104.583,340.544,104.583z"></path> <path fill="#89D99C" d="M357.626,106.299c-0.077-0.379-0.137-0.718-0.181-1.019c-0.043-0.302-0.073-0.603-0.09-0.903 c-0.491,0.628-1.104,1.15-1.839,1.566c-0.735,0.418-1.521,0.626-2.354,0.626c-1.454,0-2.559-0.354-3.316-1.064 c-0.757-0.709-1.135-1.709-1.135-2.999c0-1.325,0.536-2.347,1.606-3.064c1.071-0.719,2.54-1.077,4.407-1.077h2.619v-1.626 c0-0.817-0.259-1.464-0.774-1.942c-0.516-0.477-1.235-0.716-2.154-0.716c-0.637,0-1.198,0.082-1.684,0.245 c-0.486,0.164-0.88,0.387-1.181,0.671l-0.271,1.472h-1.961v-2.71c0.636-0.507,1.406-0.914,2.31-1.219 c0.903-0.306,1.883-0.458,2.941-0.458c1.583,0,2.864,0.404,3.845,1.212c0.98,0.81,1.471,1.966,1.471,3.471v6.723 c0,0.181,0.002,0.357,0.006,0.528c0.004,0.173,0.015,0.345,0.032,0.517l1.032,0.143v1.625H357.626z M353.537,104.44 c0.842,0,1.612-0.201,2.309-0.605c0.697-0.404,1.195-0.891,1.497-1.458v-2.297h-2.71c-1.041,0-1.864,0.241-2.471,0.723 s-0.91,1.066-0.91,1.755c0,0.61,0.189,1.076,0.567,1.4C352.199,104.279,352.771,104.44,353.537,104.44z"></path> <path fill="#89D99C" d="M362.697,104.674l2.103-0.361v-9.974l-2.103-0.361v-1.639h4.375l0.181,2.077 c0.464-0.739,1.047-1.314,1.748-1.723s1.498-0.612,2.393-0.612c1.505,0,2.671,0.44,3.497,1.322 c0.826,0.882,1.239,2.242,1.239,4.084v6.825l2.103,0.361v1.625h-6.748v-1.625l2.103-0.361v-6.774c0-1.229-0.243-2.104-0.729-2.619 s-1.228-0.773-2.226-0.773c-0.731,0-1.379,0.176-1.942,0.529c-0.563,0.352-1.013,0.834-1.349,1.443v8.194l2.104,0.361v1.625 h-6.748V104.674z"></path> <path fill="#89D99C" d="M192.322,119.235c2.047,0,3.617,0.453,4.709,1.36s1.639,2.196,1.639,3.864 c0,0.912-0.254,1.721-0.761,2.426c-0.508,0.706-1.235,1.261-2.181,1.664c1.023,0.336,1.761,0.882,2.212,1.64 c0.452,0.757,0.678,1.689,0.678,2.799v1.51c0,0.576,0.073,1.002,0.219,1.277c0.146,0.276,0.387,0.438,0.722,0.49l0.619,0.077 v1.665h-1.368c-0.989,0-1.692-0.344-2.109-1.032c-0.417-0.688-0.625-1.522-0.625-2.504v-1.457c0-1.023-0.297-1.846-0.891-2.465 c-0.593-0.619-1.389-0.929-2.387-0.929h-4.077v6.4l2.103,0.361v1.625h-6.748v-1.625l2.104-0.361v-14.8l-2.104-0.361v-1.625h2.104 H192.322z M188.722,127.622h3.342c1.419,0,2.451-0.271,3.097-0.813c0.645-0.542,0.968-1.333,0.968-2.374 c0-0.989-0.31-1.771-0.929-2.349c-0.619-0.576-1.578-0.864-2.877-0.864h-3.6V127.622z"></path> <path fill="#89D99C" d="M208.566,138.278c-1.944,0-3.49-0.646-4.639-1.941c-1.148-1.295-1.722-2.974-1.722-5.039v-0.567 c0-1.986,0.591-3.641,1.774-4.961s2.582-1.98,4.2-1.98c1.875,0,3.296,0.567,4.264,1.704c0.967,1.135,1.451,2.648,1.451,4.541 v1.587h-9.057l-0.039,0.064c0.026,1.342,0.365,2.445,1.019,3.31c0.653,0.864,1.57,1.297,2.749,1.297 c0.86,0,1.615-0.123,2.264-0.368s1.21-0.582,1.684-1.013l0.993,1.651c-0.499,0.481-1.159,0.889-1.98,1.22 C210.705,138.112,209.718,138.278,208.566,138.278z M208.179,125.789c-0.852,0-1.578,0.359-2.181,1.077 c-0.602,0.719-0.972,1.62-1.109,2.704l0.025,0.063h6.438v-0.335c0-0.997-0.266-1.832-0.8-2.503 C210.019,126.124,209.228,125.789,208.179,125.789z"></path> <path fill="#89D99C" d="M216.023,136.383l2.104-0.361v-9.975l-2.104-0.361v-1.639h4.375l0.181,2.077 c0.464-0.738,1.047-1.313,1.748-1.722c0.701-0.409,1.499-0.613,2.394-0.613c1.505,0,2.671,0.441,3.497,1.323 c0.825,0.881,1.238,2.242,1.238,4.083v6.826l2.103,0.361v1.625h-6.748v-1.625l2.103-0.361v-6.774c0-1.229-0.243-2.104-0.729-2.619 c-0.486-0.516-1.228-0.773-2.226-0.773c-0.731,0-1.379,0.175-1.942,0.528c-0.564,0.353-1.013,0.834-1.349,1.444v8.194l2.104,0.361 v1.625h-6.749V136.383z"></path> <path fill="#89D99C" d="M242.511,138.008c-0.077-0.379-0.137-0.718-0.181-1.019c-0.043-0.302-0.073-0.603-0.09-0.904 c-0.491,0.628-1.104,1.151-1.838,1.567c-0.736,0.418-1.521,0.626-2.355,0.626c-1.454,0-2.559-0.354-3.316-1.064 s-1.135-1.709-1.135-3c0-1.324,0.536-2.346,1.606-3.063c1.071-0.719,2.54-1.077,4.407-1.077h2.619v-1.627 c0-0.816-0.259-1.464-0.774-1.941c-0.516-0.477-1.235-0.716-2.154-0.716c-0.637,0-1.198,0.082-1.684,0.245 c-0.486,0.164-0.88,0.387-1.181,0.671l-0.271,1.472h-1.961v-2.71c0.636-0.508,1.406-0.914,2.31-1.219 c0.903-0.306,1.883-0.459,2.941-0.459c1.583,0,2.864,0.405,3.845,1.213c0.981,0.809,1.471,1.966,1.471,3.471v6.723 c0,0.181,0.002,0.357,0.006,0.528c0.004,0.173,0.015,0.345,0.032,0.517l1.032,0.143v1.625H242.511z M238.422,136.149 c0.842,0,1.612-0.201,2.309-0.606c0.697-0.403,1.195-0.89,1.497-1.458v-2.296h-2.709c-1.041,0-1.865,0.24-2.471,0.723 c-0.607,0.481-0.91,1.066-0.91,1.754c0,0.611,0.189,1.077,0.568,1.4C237.083,135.988,237.656,136.149,238.422,136.149z"></path> <path fill="#89D99C" d="M247.608,119.519v-1.639h4.645v18.142l2.103,0.361v1.625h-6.748v-1.625l2.103-0.361V119.88 L247.608,119.519z"></path> <path fill="#89D99C" d="M277.18,124.989h-1.793l-0.478-2.658c-0.412-0.403-0.92-0.734-1.522-0.993 c-0.602-0.258-1.32-0.388-2.155-0.388c-1.952,0-3.454,0.708-4.503,2.123c-1.05,1.415-1.574,3.21-1.574,5.387v0.297 c0,2.176,0.514,3.976,1.542,5.399s2.454,2.136,4.277,2.136c0.852,0,1.626-0.134,2.323-0.4c0.697-0.267,1.234-0.594,1.612-0.98 l0.478-2.658h1.793v3.342c-0.542,0.697-1.354,1.318-2.438,1.865c-1.084,0.546-2.34,0.818-3.768,0.818 c-2.442,0-4.447-0.902-6.012-2.709s-2.349-4.077-2.349-6.813v-0.271c0-2.753,0.77-5.03,2.31-6.833 c1.54-1.801,3.557-2.702,6.051-2.702c1.428,0,2.684,0.277,3.768,0.832s1.896,1.177,2.438,1.864V124.989z"></path> <path fill="#89D99C" d="M288.999,138.008c-0.077-0.379-0.137-0.718-0.181-1.019c-0.043-0.302-0.073-0.603-0.09-0.904 c-0.49,0.628-1.103,1.151-1.838,1.567c-0.735,0.418-1.521,0.626-2.354,0.626c-1.454,0-2.559-0.354-3.316-1.064 s-1.135-1.709-1.135-3c0-1.324,0.536-2.346,1.606-3.063c1.071-0.719,2.54-1.077,4.407-1.077h2.619v-1.627 c0-0.816-0.259-1.464-0.774-1.941c-0.516-0.477-1.235-0.716-2.155-0.716c-0.637,0-1.198,0.082-1.684,0.245 c-0.486,0.164-0.88,0.387-1.181,0.671l-0.271,1.472h-1.961v-2.71c0.636-0.508,1.406-0.914,2.31-1.219 c0.902-0.306,1.883-0.459,2.941-0.459c1.583,0,2.864,0.405,3.845,1.213c0.98,0.809,1.471,1.966,1.471,3.471v6.723 c0,0.181,0.002,0.357,0.006,0.528c0.004,0.173,0.015,0.345,0.032,0.517l1.032,0.143v1.625H288.999z M284.909,136.149 c0.842,0,1.612-0.201,2.309-0.606c0.697-0.403,1.195-0.89,1.497-1.458v-2.296h-2.71c-1.041,0-1.864,0.24-2.471,0.723 c-0.606,0.481-0.91,1.066-0.91,1.754c0,0.611,0.189,1.077,0.567,1.4C283.571,135.988,284.143,136.149,284.909,136.149z"></path> <path fill="#89D99C" d="M294.069,136.383l2.104-0.361v-9.975l-2.104-0.361v-1.639h4.375l0.181,2.077 c0.464-0.738,1.047-1.313,1.748-1.722c0.701-0.409,1.499-0.613,2.394-0.613c1.505,0,2.671,0.441,3.497,1.323 c0.826,0.881,1.239,2.242,1.239,4.083v6.826l2.103,0.361v1.625h-6.748v-1.625l2.103-0.361v-6.774c0-1.229-0.243-2.104-0.729-2.619 c-0.486-0.516-1.228-0.773-2.226-0.773c-0.731,0-1.379,0.175-1.942,0.528c-0.563,0.353-1.013,0.834-1.349,1.444v8.194l2.104,0.361 v1.625h-6.749V136.383z"></path> <path fill="#89D99C" d="M317.59,136.292c0.844,0,1.585-0.261,2.226-0.781c0.641-0.52,0.961-1.159,0.961-1.916h2.284l0.026,0.077 c0.043,1.205-0.493,2.273-1.607,3.207c-1.113,0.934-2.41,1.399-3.89,1.399c-2.03,0-3.58-0.662-4.651-1.986 c-1.07-1.325-1.605-2.989-1.605-4.994v-0.541c0-1.986,0.537-3.645,1.612-4.974c1.076-1.329,2.624-1.994,4.645-1.994 c1.118,0,2.123,0.185,3.013,0.556c0.89,0.369,1.627,0.877,2.212,1.521l0.117,3.097h-2.026l-0.555-2.193 c-0.301-0.292-0.688-0.529-1.161-0.71c-0.474-0.181-1.006-0.271-1.601-0.271c-1.333,0-2.285,0.48-2.857,1.438 c-0.572,0.96-0.858,2.136-0.858,3.529v0.541c0,1.429,0.284,2.618,0.852,3.568C315.294,135.817,316.249,136.292,317.59,136.292z"></path> <path fill="#89D99C" d="M331.938,138.278c-1.944,0-3.49-0.646-4.638-1.941c-1.148-1.295-1.722-2.974-1.722-5.039v-0.567 c0-1.986,0.591-3.641,1.774-4.961c1.183-1.32,2.582-1.98,4.2-1.98c1.875,0,3.296,0.567,4.264,1.704 c0.968,1.135,1.452,2.648,1.452,4.541v1.587h-9.057l-0.039,0.064c0.026,1.342,0.366,2.445,1.02,3.31 c0.653,0.864,1.57,1.297,2.748,1.297c0.86,0,1.615-0.123,2.265-0.368s1.21-0.582,1.684-1.013l0.993,1.651 c-0.499,0.481-1.158,0.889-1.98,1.22C334.078,138.112,333.09,138.278,331.938,138.278z M331.551,125.789 c-0.852,0-1.578,0.359-2.181,1.077c-0.602,0.719-0.972,1.62-1.109,2.704l0.025,0.063h6.438v-0.335c0-0.997-0.267-1.832-0.8-2.503 C333.392,126.124,332.601,125.789,331.551,125.789z"></path> <path fill="#89D99C" d="M339.77,125.686v-1.639h4.374l0.246,2.026c0.396-0.714,0.884-1.273,1.464-1.678 c0.58-0.404,1.245-0.606,1.993-0.606c0.198,0,0.402,0.016,0.613,0.046c0.21,0.029,0.372,0.062,0.484,0.096l-0.336,2.362 l-1.445-0.078c-0.671,0-1.235,0.157-1.69,0.471c-0.456,0.314-0.809,0.756-1.058,1.322v8.014l2.103,0.361v1.625h-6.748v-1.625 l2.103-0.361v-9.975L339.77,125.686z"></path> <path fill="#89D99C" d="M371.987,135.878c-0.551,0.577-1.363,1.121-2.438,1.633c-1.075,0.513-2.473,0.768-4.193,0.768 c-2.512,0-4.561-0.881-6.148-2.645s-2.38-4.051-2.38-6.863v-0.311c0-2.83,0.785-5.122,2.355-6.877 c1.569-1.754,3.658-2.632,6.264-2.632c1.394,0,2.618,0.218,3.671,0.651c1.053,0.435,1.942,1.009,2.665,1.723v3.405H370 l-0.62-2.592c-0.421-0.345-0.931-0.629-1.528-0.853c-0.599-0.224-1.314-0.336-2.148-0.336c-2.03,0-3.593,0.695-4.69,2.084 c-1.097,1.39-1.645,3.189-1.645,5.4v0.336c0,2.244,0.532,4.06,1.593,5.443c1.063,1.386,2.527,2.078,4.394,2.078 c1.024,0,1.862-0.107,2.516-0.323c0.654-0.215,1.178-0.451,1.574-0.71v-4.115l-3.084-0.129v-1.871h5.625V135.878z"></path> <path fill="#89D99C" d="M375.161,125.686v-1.639h4.374l0.245,2.026c0.396-0.714,0.884-1.273,1.465-1.678 c0.58-0.404,1.244-0.606,1.993-0.606c0.198,0,0.402,0.016,0.613,0.046c0.21,0.029,0.372,0.062,0.484,0.096l-0.336,2.362 l-1.445-0.078c-0.671,0-1.235,0.157-1.69,0.471c-0.456,0.314-0.808,0.756-1.058,1.322v8.014l2.103,0.361v1.625h-6.748v-1.625 l2.103-0.361v-9.975L375.161,125.686z"></path> <path fill="#89D99C" d="M385.844,130.898c0-2.064,0.559-3.765,1.677-5.104c1.118-1.337,2.636-2.006,4.554-2.006 c1.927,0,3.452,0.667,4.574,2c1.123,1.334,1.684,3.036,1.684,5.109v0.284c0,2.081-0.56,3.784-1.678,5.109 c-1.118,1.324-2.636,1.986-4.554,1.986c-1.935,0-3.462-0.664-4.58-1.992c-1.118-1.329-1.677-3.03-1.677-5.104V130.898z M388.386,131.183c0,1.479,0.312,2.7,0.935,3.664c0.624,0.964,1.551,1.445,2.781,1.445c1.205,0,2.121-0.481,2.748-1.445 c0.628-0.964,0.942-2.185,0.942-3.664v-0.284c0-1.462-0.314-2.68-0.942-3.651c-0.627-0.972-1.553-1.458-2.774-1.458 s-2.142,0.486-2.761,1.458c-0.619,0.972-0.929,2.189-0.929,3.651V131.183z"></path> <path fill="#89D99C" d="M410.642,135.943c-0.438,0.748-1.004,1.324-1.696,1.729c-0.692,0.405-1.49,0.606-2.393,0.606 c-1.514,0-2.697-0.485-3.548-1.457c-0.852-0.973-1.277-2.486-1.277-4.542v-6.232l-1.6-0.361v-1.639h1.6h2.542v8.259 c0,1.487,0.219,2.511,0.658,3.07c0.439,0.559,1.123,0.838,2.052,0.838c0.903,0,1.649-0.183,2.239-0.548 c0.588-0.365,1.033-0.884,1.334-1.556v-8.063l-1.87-0.361v-1.639h1.87h2.542v11.975l1.6,0.361v1.625h-3.884L410.642,135.943z"></path> <path fill="#89D99C" d="M416.397,141.736l2.103-0.361v-15.328l-2.103-0.361v-1.639h4.283l0.232,1.704 c0.464-0.637,1.03-1.123,1.697-1.459c0.667-0.335,1.438-0.503,2.316-0.503c1.729,0,3.073,0.687,4.032,2.059 c0.959,1.372,1.439,3.185,1.439,5.438v0.271c0,2.013-0.481,3.637-1.445,4.87c-0.963,1.235-2.292,1.852-3.987,1.852 c-0.86,0-1.615-0.144-2.264-0.432c-0.65-0.288-1.202-0.717-1.658-1.284v4.813l2.103,0.361v1.639h-6.748V141.736z M427.841,131.285 c0-1.591-0.31-2.894-0.929-3.909c-0.62-1.016-1.54-1.521-2.761-1.521c-0.723,0-1.342,0.163-1.858,0.489 c-0.517,0.327-0.934,0.774-1.252,1.342v6.8c0.318,0.576,0.733,1.021,1.245,1.336c0.512,0.313,1.142,0.471,1.89,0.471 c1.204,0,2.116-0.439,2.735-1.316c0.619-0.877,0.929-2.017,0.929-3.419V131.285z"></path> </g> </g> <g> <g> <g> <path fill-rule="evenodd" clip-rule="evenodd" fill="#89D99C" d="M66.068,14c1.863,0.346,3.667,0.764,5.356,1.738 c4.419,2.549,6.467,9.84,1.803,14.427c-0.565,0.556-1.136,1.108-1.686,1.678c-2.133,2.208-1.464,6.315,1.302,7.764 c2.07,1.082,4.341,1.122,6.614,1.109c3.187-0.019,3.152-0.005,3.199,3.208c0.033,2.313,0.161,4.625,0.273,6.938 c0.032,0.689-0.082,1.194-0.833,1.448c-6.004,2.037-13.177,1.062-17.198-4.87c-1.449-2.137-1.391-4.165-0.293-6.395 c-2.765-0.61-5.48-0.481-8.043-1.369c-3.488-1.21-7.469-4.697-7.539-9.883c-0.015-1.091-0.382-2.173-0.527-3.267 c-0.195-1.467-0.954-1.021-1.729-0.553c-0.132,0.077-0.258,0.194-0.334,0.324c-2.968,5.075-8.19,7.418-12.813,10.444 c-3.514,2.303-7.079,4.548-10.954,6.268c-4.865,2.158-9.815,3.062-15.052,1.723c-0.144-0.037-0.308,0.017-0.461,0.029 c0-0.424,0-0.846,0-1.269c0.407,0.658,0.697,0.033,0.907-0.148c1.404-1.211,2.994-2.136,4.641-2.945 c8.848-4.35,17.167-9.532,25.082-15.422c7.337-5.461,15.037-10.265,24.531-11.006C62.587,13.947,65.726,13.936,66.068,14z"></path> </g> <g> <path fill-rule="evenodd" clip-rule="evenodd" fill="#89D99C" d="M169.555,44.441c-6.943,2.239-13.166-0.008-19.176-3.21 c-7.129-3.804-13.972-8.033-19.513-14.07c-0.619-0.674-1.408-1.711-2.294-1.437c-0.94,0.29-0.458,1.559-0.612,2.398 c-0.538,2.931-0.782,5.934-2.887,8.361c-1.712,1.974-3.864,3.016-6.345,3.49c-2.002,0.384-4.021,0.685-6.042,1.022 c1.215,4.667,0.35,6.899-3.605,9.625c-3.995,2.753-8.308,3.386-12.946,2.038c-1.239-0.36-1.877-0.951-1.791-2.424 c0.149-2.582,0.145-5.184,0.001-7.766c-0.085-1.542,0.488-1.848,1.87-1.787c1.94,0.084,3.895,0.141,5.817-0.357 c2.87-0.742,4.739-2.719,5.001-5.621c0.139-1.544-0.811-2.654-1.916-3.629c-1.222-1.074-2.53-2.065-3.134-3.687 c-2.181-5.854,1.417-10.863,7.727-13.051c3.358-1.163,7.704-0.388,7.979-0.343c1.452,0.241,2.898,0.503,4.287,1.009 c5.962,2.17,11.011,5.904,16.135,9.489c8.864,6.2,17.538,12.709,27.7,16.75c1.389,0.554,2.487,1.519,3.744,2.25 C169.555,43.808,169.555,44.124,169.555,44.441z"></path> </g> <g> <g> <path fill-rule="evenodd" clip-rule="evenodd" fill="#89D99C" d="M89.341,130.06c-0.423-0.396-0.178-0.902-0.05-1.396 c-0.763,0.058-1.147,0.475-1.586,0.79c-0.999,0.674-2.036,1.302-2.991,2.032c-1.737,1.329-2.036,2.65-1.138,4.684 c0.187,0.425,0.475,0.821,0.235,1.327c-2.704-2.246-2.824-4.191-0.527-6.632c1.018-1.081,2.151-1.998,3.442-2.891 c-2.021-1.157-3.978-2.279-5.937-3.401c-1.382-0.791-2.64-1.726-3.566-3.052c-1.356-1.944-1.28-3.397,0.408-5.068 c2.069-2.045,4.599-3.419,7.416-4.813c-1.345-0.721-2.522-1.363-3.703-1.991c-2.747-1.459-5.458-2.976-7.66-5.224 c-2.276-2.321-2.234-4.056,0.163-6.277c2.677-2.484,6.015-3.842,9.273-5.317c0.141-0.131,0.278-0.263,0.418-0.394 c-0.265-0.218-0.47-0.076-0.667,0.112c-0.957,0.298-1.748-0.267-2.58-0.539c-3.203-1.04-6.414-2.065-9.459-3.525 c-1.296-0.623-2.461-1.424-3.446-2.484c-1.417-1.522-1.45-3.09,0.077-4.588c1.649-1.618,3.745-2.516,5.879-3.299 c1.38-0.505,2.778-0.956,4.214-1.449c-0.318-0.853-1.005-0.746-1.588-0.87c-4.939-1.062-9.896-2.053-14.359-4.627 c-1.352-0.778-2.505-1.729-3.46-2.932c-0.725-0.914-0.761-1.941-0.267-2.977c0.202-0.425,0.393-0.903,0.729-1.204 c3.272-2.939,6.48-6.008,11.162-6.565c2.82-0.335,5.638-0.688,8.462-0.075c1.1,0.238,2.127,0.66,2.927,1.484 c0.759,0.784,0.652,1.903-0.276,2.451c-2.814,1.662-5.949,2.371-9.114,2.966c-0.865,0.161-1.652-0.289-2.438-0.573 c-1.147-0.416-2.323-0.685-3.539-0.688c-0.568-0.003-1.194-0.013-1.425,0.715c-0.213,0.667,0.195,1.14,0.585,1.529 c1.146,1.138,2.619,1.74,4.106,2.276c5.294,1.91,10.649,3.638,16.099,5.065c2.149,0.806,4.366,1.322,6.651,1.783 c0.007-0.955-0.767-0.6-0.981-0.997c0.319-0.3,0.86-0.189,1.066-0.638c4.773-0.924,9.316-2.609,13.888-4.201 c2.333-0.811,4.759-1.423,6.828-2.871c0.388-0.273,0.787-0.521,1.004-0.977c0.165-0.35,0.304-0.728,0.094-1.057 c-0.239-0.378-0.687-0.279-1.015-0.154c-5.113,1.967-9.85,0.308-14.536-1.565c-0.771-0.308-1.797-0.509-1.771-1.856 c0.026-1.31,0.905-1.691,1.775-2.124c2.007-0.994,4.168-0.945,6.335-0.836c2.74,0.139,5.596,0.178,7.947,1.653 c2.332,1.464,4.8,2.853,6.683,4.934c1.804,1.994,1.699,3.594-0.268,5.494c-2.866,2.774-6.536,3.987-10.247,5.027 c-2.577,0.721-5.219,1.22-7.83,1.822c-0.99,0.229-1.84-0.363-2.773-0.463c-0.679-0.209-1.341-0.593-2.297-0.249 c0.817,0.297,1.411,0.599,2.105,0.532c2.338,0.75,4.707,1.423,7.01,2.274c1.966,0.725,3.962,1.442,5.563,2.901 c1.586,1.449,1.702,3.26,0.28,4.859c-1.483,1.671-3.449,2.59-5.469,3.365c-3.041,1.17-6.132,2.217-9.203,3.322 c-0.384,0.137-0.757,0.307-1.101,0.449c3.593,1.297,7.004,2.851,9.686,5.608c1.808,1.861,1.791,3.495,0.029,5.405 c-2.323,2.515-5.333,4.056-8.257,5.74c-7.003,4.035-2.622,3.005-5.733,0.583c-0.248-0.159-0.076-0.807-0.324-0.964 c-0.286-0.299-0.313-0.594,0.002-0.888c2.124-1.066,4.153-2.296,5.91-3.892c1.862-1.689,1.912-3.279,0.271-5.21 c-1.486-1.745-3.52-2.632-5.574-3.473c-0.167-0.195-0.488-0.397-0.477-0.581c0.056-0.898,0.071-0.933-0.724-0.586 c-1.194,0.521-2.362,1.104-3.543,1.658c-1.842,0.914-3.675,1.85-5.001,3.498c-1.169,1.456-1.137,2.74,0.203,4.048 c1.592,1.553,3.433,2.78,5.378,3.848c1.024,0.911,2.266,1.462,3.459,2.092c0.206,0.069,0.414,0.139,0.621,0.209 c2.331,1.424,4.678,2.824,6.99,4.281c1.153,0.73,2.229,1.565,3.085,2.671c0.966,1.247,0.985,2.473,0.216,3.806 c-1.437,2.491-3.971,3.534-6.316,4.815c-1.418,0.776-2.884,1.469-4.349,2.208c1.173,1.415,2.723,2.282,3.767,3.698 c1.833,2.482,1.492,4.544-1.139,6.208c-0.053-0.071-0.167-0.18-0.151-0.21c1.787-3.125,1.086-3.458-1.237-5.732 C90.98,131.218,90.128,130.674,89.341,130.06z M84.625,92.1c0.138-0.1,0.278-0.197,0.415-0.298 c-0.227-0.176-0.448-0.07-0.67,0.015c-0.129,0.132-0.262,0.26-0.395,0.388C84.228,92.382,84.438,92.317,84.625,92.1z M87.644,125.72c0.464,0.389,0.063,1.007,0.305,1.48c0.715-0.265,1.284-0.578,1.686-1.142c1.059-0.679,2.119-1.351,3.173-2.033 c3.02-1.958,3.184-5.827,0.35-8.07c-0.913-0.723-1.947-1.231-2.989-1.728c-0.875-0.707-1.874-1.106-3.138-1.264 c1.354,0.721,0.581,1.255,0.04,1.805c-1.386,1.112-2.827,2.161-3.881,3.635c-1.263,1.766-1.194,3.114,0.491,4.521 C84.916,123.958,86.316,124.796,87.644,125.72z M85.818,89.336c0.561,0.318,1.121,0.633,1.655,0.934 c-0.27,0.657-1.253,0.266-1.296,1.376c1.773-0.677,3.536-1.007,5.067-2.014c2.447-0.774,4.853-1.635,6.917-3.231 c1.64-1.27,1.728-2.595,0.357-4.105c-1.796-1.98-4.128-2.765-6.669-3.131c-2.031-0.852-4.2-1.082-6.348-1.402 c-1.387-0.148-2.701-0.942-4.152-0.494c1.391,0.228,2.693,0.885,4.128,0.853c0.388,0.385,0.392,0.77,0.006,1.154 c-2.605,0.403-4.937,1.403-6.871,3.219c-1.284,1.207-1.194,2.654,0.204,3.729C80.895,87.825,83.362,88.574,85.818,89.336z M91.676,94.304c1.117,0.127,1.737-0.251,2.346-0.656C93.241,93.473,92.604,93.787,91.676,94.304z"></path> </g> </g> <g> <path fill-rule="evenodd" clip-rule="evenodd" fill="#89D99C" d="M91.812,74.423c-2.285-0.461-4.501-0.978-6.651-1.783 c-0.203-4.992-0.989-23.917-1.265-28.381c-0.237-3.78-0.126-7.577-0.584-11.343c-0.11-0.898,0.02-1.479,1.21-1.443 c2.745,0.086,5.497,0.079,8.243,0.003c1.189-0.033,1.317,0.558,1.206,1.462C93.539,36.393,91.819,73.468,91.812,74.423z"></path> </g> <g> <path fill-rule="evenodd" clip-rule="evenodd" fill="#89D99C" d="M152.312,49.425c-3.144-0.043-5.756-1.048-8.241-2.309 c-5.373-2.725-10.19-6.301-14.914-10.007c-0.041-0.033-0.099-0.053-0.126-0.096c-0.827-1.149,0.008-2.188,0.258-3.247 c0.261-1.087,0.838-2.045,1.804-2.654c0.158-0.099,0.645,0.267,0.946,0.468c3.211,2.125,6.038,4.746,9.068,7.102 c4.049,3.147,8.449,5.694,13.052,7.921c0.737,0.356,1.864,0.761,1.725,1.545c-0.125,0.693-1.29,0.945-2.128,1.094 C153.19,49.341,152.615,49.388,152.312,49.425z"></path> </g> <g> <path fill-rule="evenodd" clip-rule="evenodd" fill="#89D99C" d="M20.564,48.711c0.353-1.154,1.072-1.853,2.016-2.235 c6.99-2.824,12.651-7.639,18.458-12.243c1.232-0.978,2.569-1.828,3.872-2.717c0.681-0.463,1.102-0.406,1.485,0.49 c1.869,4.376,1.874,4.333-1.875,7.346c-4.198,3.375-8.573,6.449-13.658,8.361C27.56,48.953,24.192,49.56,20.564,48.711z"></path> </g> <g> <path fill-rule="evenodd" clip-rule="evenodd" fill="#89D99C" d="M145.085,51.888c-4.051,0.417-7.479,0.178-10.707-1.834 c-3.483-2.177-6.825-4.505-9.76-7.395c-0.884-0.871-1.257-1.488,0.063-2.505c2.453-1.889,2.376-2.01,4.809-0.158 C134.578,43.865,139.656,47.746,145.085,51.888z"></path> </g> <g> <path fill-rule="evenodd" clip-rule="evenodd" fill="#89D99C" d="M31.875,51.954c0.727-1.555,1.999-2.447,3.271-3.182 c4.304-2.485,8.238-5.423,11.83-8.866c2.044-1.96,2.16-1.881,4.346-0.093c0.555,0.454,0.979,1.079,1.415,1.662 c0.312,0.418,0.33,0.815-0.21,1.166c-3.614,2.346-6.681,5.458-10.495,7.528C38.884,51.878,35.521,52.336,31.875,51.954z"></path> </g> <g> <path fill-rule="evenodd" clip-rule="evenodd" fill="#89D99C" d="M43.942,53.709c0.712-1.403,1.532-2.465,2.586-3.242 c2.511-1.855,4.934-3.818,6.792-6.334c1.322-1.79,2.996-1.852,4.882-1.489c0.155,0.028,0.299,0.105,0.446,0.161 c0.563,0.21,1.494-0.318,1.681,0.391c0.202,0.772-0.06,1.689-0.58,2.386c-0.402,0.537-0.882,1.039-1.407,1.46 c-3.148,2.522-6.004,5.504-10.146,6.484C46.85,53.845,45.507,53.877,43.942,53.709z"></path> </g> <g> <path fill-rule="evenodd" clip-rule="evenodd" fill="#89D99C" d="M132.556,53.463c-2.378,0.667-4.434,0.062-6.407-0.745 c-3.684-1.508-6.739-3.83-8.704-7.392c-0.275-0.499-0.405-1.076-0.639-1.601c-0.23-0.512-0.128-0.802,0.456-0.867 c1.299-0.141,2.597-0.284,3.893-0.43c0.459-0.052,0.794,0.134,1.114,0.458C125.655,46.341,129.182,49.658,132.556,53.463z"></path> </g> <g> <path fill-rule="evenodd" clip-rule="evenodd" fill="#89D99C" d="M85.501,77.762c2.147,0.32,4.317,0.551,6.348,1.402 c-0.624,3.465-0.394,6.979-0.605,10.468c-1.531,1.007-3.293,1.337-5.067,2.014C86.22,90.535,85.495,77.88,85.501,77.762z"></path> </g> <g> <path fill-rule="evenodd" clip-rule="evenodd" fill="#89D99C" d="M90.205,109.957c-1.194-0.63-2.436-1.181-3.459-2.092 c-0.09-3.804-0.108-7.61-0.581-11.394c1.181-0.555,2.349-1.137,3.543-1.658c0.795-0.347,1.393-0.927,1.337-0.03 C91.032,94.967,90.236,109.785,90.205,109.957z"></path> </g> <g> <path fill-rule="evenodd" clip-rule="evenodd" fill="#89D99C" d="M87.03,112.964c1.264,0.157,2.263,0.557,3.138,1.264 c-0.471,3.929-0.733,7.87-0.534,11.831c-0.402,0.563-0.97,0.877-1.686,1.142C87.707,126.727,87.07,114.769,87.03,112.964z"></path> </g> <g> <path fill-rule="evenodd" clip-rule="evenodd" fill="#89D99C" d="M85.501,77.762C85.495,77.88,85.486,78,85.478,78.12 c-1.436,0.032-2.738-0.625-4.128-0.853C82.801,76.819,84.115,77.613,85.501,77.762z"></path> </g> <g> <path fill-rule="evenodd" clip-rule="evenodd" fill="#89D99C" d="M91.676,94.304c0.928-0.517,1.565-0.831,2.346-0.656 C93.413,94.053,92.792,94.431,91.676,94.304z"></path> </g> <g> <path fill-rule="evenodd" clip-rule="evenodd" fill="#89D99C" d="M97.818,75.897c-0.694,0.066-1.289-0.235-2.105-0.532 c0.956-0.344,1.619,0.04,2.297,0.249C97.946,75.706,97.881,75.802,97.818,75.897z"></path> </g> <g> <path fill-rule="evenodd" clip-rule="evenodd" fill="#89D99C" d="M90.205,109.957c0.032-0.172,0.063-0.344,0.095-0.515 c0.248,0.157,0.497,0.314,0.745,0.473c-0.073,0.084-0.146,0.167-0.219,0.251C90.618,110.096,90.41,110.026,90.205,109.957z"></path> </g> <g> <path fill-rule="evenodd" clip-rule="evenodd" fill="#89D99C" d="M84.369,91.816c0.222-0.085,0.443-0.19,0.67-0.015 C84.902,91.902,84.762,92,84.625,92.1C84.541,92.005,84.456,91.91,84.369,91.816z"></path> </g> <g> <path fill-rule="evenodd" clip-rule="evenodd" fill="#89D99C" d="M84.625,92.1c-0.187,0.218-0.397,0.282-0.65,0.104 c0.133-0.128,0.266-0.256,0.395-0.388C84.456,91.91,84.541,92.005,84.625,92.1z"></path> </g> <g> <path fill-rule="evenodd" clip-rule="evenodd" fill="#89D99C" d="M82.871,92.549c0.197-0.188,0.402-0.33,0.667-0.112 c-0.14,0.131-0.277,0.263-0.418,0.394C83.037,92.736,82.954,92.643,82.871,92.549z"></path> </g> <g> <g> <path fill="#89D99C" d="M88.313,13.381c-4.041,0-7.32,3.277-7.32,7.32c0,4.042,3.279,7.321,7.32,7.321 c4.044,0,7.32-3.279,7.32-7.321C95.632,16.658,92.357,13.381,88.313,13.381z M89.526,26.023c2.9-3.292,3.047-6.744,0.689-10.331 c2.373-0.17,4.301,2.09,4.318,4.871C94.555,23.57,92.316,26.12,89.526,26.023z"></path> </g> </g> <g> <path fill-rule="evenodd" clip-rule="evenodd" fill="#89D99C" d="M88.353,141.813c-0.137-3.818-0.269-7.64-0.418-11.459 c-0.014-0.301-0.151-0.6-0.231-0.9c0.439-0.315,0.824-0.732,1.586-0.79c0,0.694-0.309,9.19-0.303,13.149 C88.776,141.813,88.564,141.813,88.353,141.813z"></path> </g> <g> <polygon fill-rule="evenodd" clip-rule="evenodd" fill="#89D99C" points="94.42,109.442 93.428,111.357 93.428,113.182 88.114,111.754 89.897,110.563 90.268,108.937 "></polygon> </g> <g> <polygon fill-rule="evenodd" clip-rule="evenodd" fill="#89D99C" points="96.085,73.658 95.889,77.131 99.735,77.483 99.188,76.916 102.952,75.595 103.346,74.264 96.202,72.741 "></polygon> </g> </g> </g> </svg> 